G75*
G70*
%OFA0B0*%
%FSLAX24Y24*%
%IPPOS*%
%LPD*%
%AMOC8*
5,1,8,0,0,1.08239X$1,22.5*
%
%ADD10R,0.1340X0.0789*%
%ADD11R,0.0320X0.0950*%
%ADD12R,0.0552X0.0395*%
%ADD13R,0.0395X0.0552*%
%ADD14R,0.2206X0.1655*%
%ADD15R,0.1025X0.1025*%
%ADD16R,0.0631X0.0474*%
%ADD17R,0.1182X0.1576*%
%ADD18R,0.0363X0.0781*%
%ADD19C,0.0965*%
%ADD20C,0.0680*%
%ADD21R,0.0867X0.0552*%
%ADD22C,0.1480*%
%ADD23R,0.0900X0.1580*%
%ADD24R,0.4580X0.3580*%
%ADD25R,0.2245X0.0808*%
%ADD26R,0.1143X0.0710*%
%ADD27C,0.0820*%
%ADD28R,0.0828X0.1419*%
%ADD29R,0.0880X0.0880*%
%ADD30C,0.0880*%
%ADD31C,0.0437*%
D10*
X004100Y020248D03*
X004100Y022452D03*
X017600Y015952D03*
X017600Y013748D03*
D11*
X014100Y017820D03*
X013600Y017820D03*
X013100Y017820D03*
X012600Y017820D03*
X012600Y019880D03*
X013100Y019880D03*
X013600Y019880D03*
X014100Y019880D03*
D12*
X011600Y018954D03*
X011600Y018246D03*
X011100Y017204D03*
X011100Y016496D03*
D13*
X011204Y013350D03*
X010496Y013350D03*
X013746Y013600D03*
X014454Y013600D03*
X014454Y016350D03*
X013746Y016350D03*
X011704Y021850D03*
X010996Y021850D03*
X004954Y023850D03*
X004246Y023850D03*
X004246Y000850D03*
X004954Y000850D03*
X002954Y000850D03*
X002246Y000850D03*
D14*
X016100Y007921D03*
X016100Y011779D03*
D15*
X012350Y011484D03*
X012350Y013216D03*
X009216Y018350D03*
X007484Y018350D03*
X007234Y023600D03*
X008966Y023600D03*
D16*
X013667Y015474D03*
X013667Y014726D03*
X014533Y015100D03*
D17*
X007807Y008100D03*
X004893Y008100D03*
D18*
X002600Y005775D03*
X002100Y005775D03*
X001600Y005775D03*
X001100Y005775D03*
X001100Y003925D03*
X001600Y003925D03*
X002100Y003925D03*
X002600Y003925D03*
D19*
X006650Y014558D02*
X006650Y015443D01*
X008850Y015443D02*
X008850Y014558D01*
X011050Y014558D02*
X011050Y015443D01*
X011050Y020058D02*
X011050Y020943D01*
X008850Y020943D02*
X008850Y020058D01*
X006650Y020058D02*
X006650Y020943D01*
D20*
X007100Y024800D02*
X007100Y025400D01*
X006100Y025400D02*
X006100Y024800D01*
X005100Y024800D02*
X005100Y025400D01*
X004100Y025400D02*
X004100Y024800D01*
X003100Y024800D02*
X003100Y025400D01*
X008100Y025400D02*
X008100Y024800D01*
X009100Y024800D02*
X009100Y025400D01*
X010100Y025400D02*
X010100Y024800D01*
X011100Y024800D02*
X011100Y025400D01*
X012100Y025400D02*
X012100Y024800D01*
X013100Y024800D02*
X013100Y025400D01*
X014100Y025400D02*
X014100Y024800D01*
X014100Y002400D02*
X014100Y001800D01*
X013100Y001800D02*
X013100Y002400D01*
X012100Y002400D02*
X012100Y001800D01*
X011100Y001800D02*
X011100Y002400D01*
X010100Y002400D02*
X010100Y001800D01*
X009100Y001800D02*
X009100Y002400D01*
X008100Y002400D02*
X008100Y001800D01*
X007100Y001800D02*
X007100Y002400D01*
X006100Y002400D02*
X006100Y001800D01*
X005100Y001800D02*
X005100Y002400D01*
X004100Y002400D02*
X004100Y001800D01*
X003100Y001800D02*
X003100Y002400D01*
D21*
X007600Y011720D03*
X007600Y012980D03*
D22*
X016350Y017413D03*
X016350Y019713D03*
X016350Y022987D03*
X016350Y025287D03*
D23*
X012350Y009850D03*
X010350Y009850D03*
D24*
X011350Y005350D03*
D25*
X005600Y005854D03*
X005600Y003846D03*
D26*
X007600Y009799D03*
X007600Y010901D03*
D27*
X015570Y002740D03*
X015570Y000960D03*
X018130Y000960D03*
X018130Y002740D03*
D28*
X009118Y016850D03*
X007582Y016850D03*
X007332Y022100D03*
X008868Y022100D03*
D29*
X001850Y018350D03*
X001850Y013350D03*
X001850Y008350D03*
D30*
X001850Y010319D03*
X001850Y015319D03*
X001850Y020319D03*
D31*
X001600Y000850D03*
X003850Y004600D03*
X003100Y005600D03*
X007350Y004600D03*
X008850Y011350D03*
X008850Y011850D03*
X008850Y012350D03*
X009350Y012350D03*
X009350Y011850D03*
X009350Y011350D03*
X009850Y011350D03*
X009850Y011850D03*
X009850Y012350D03*
X010350Y012350D03*
X010350Y011850D03*
X010350Y011350D03*
X011850Y016100D03*
X012600Y016850D03*
X011100Y017850D03*
X012600Y021100D03*
X014600Y018350D03*
X016100Y014350D03*
X018100Y012600D03*
X018100Y017850D03*
X010100Y023350D03*
X005600Y023350D03*
X005350Y019850D03*
X001350Y024100D03*
X016850Y005100D03*
X018100Y006100D03*
M02*
