G75*
G70*
%OFA0B0*%
%FSLAX24Y24*%
%IPPOS*%
%LPD*%
%AMOC8*
5,1,8,0,0,1.08239X$1,22.5*
%
%ADD10R,0.1260X0.0709*%
%ADD11R,0.0240X0.0870*%
%ADD12R,0.0472X0.0315*%
%ADD13R,0.0315X0.0472*%
%ADD14R,0.2126X0.1575*%
%ADD15R,0.0945X0.0945*%
%ADD16R,0.0551X0.0394*%
%ADD17R,0.1102X0.1496*%
%ADD18R,0.0283X0.0701*%
%ADD19C,0.0885*%
%ADD20C,0.0600*%
%ADD21R,0.0787X0.0472*%
%ADD22C,0.1400*%
%ADD23R,0.0820X0.1500*%
%ADD24R,0.4500X0.3500*%
%ADD25R,0.2165X0.0728*%
%ADD26R,0.1063X0.0630*%
%ADD27C,0.0740*%
%ADD28R,0.0748X0.1339*%
%ADD29R,0.0800X0.0800*%
%ADD30C,0.0800*%
%ADD31C,0.0660*%
%ADD32C,0.0400*%
%ADD33C,0.0160*%
%ADD34C,0.0357*%
%ADD35C,0.0500*%
%ADD36C,0.0240*%
%ADD37C,0.0120*%
%ADD38C,0.0320*%
%ADD39C,0.0560*%
D10*
X004100Y020248D03*
X004100Y022452D03*
X017600Y015952D03*
X017600Y013748D03*
D11*
X014100Y017820D03*
X013600Y017820D03*
X013100Y017820D03*
X012600Y017820D03*
X012600Y019880D03*
X013100Y019880D03*
X013600Y019880D03*
X014100Y019880D03*
D12*
X011600Y018954D03*
X011600Y018246D03*
X011100Y017204D03*
X011100Y016496D03*
D13*
X011204Y013350D03*
X010496Y013350D03*
X013746Y013600D03*
X014454Y013600D03*
X014454Y016350D03*
X013746Y016350D03*
X011704Y021850D03*
X010996Y021850D03*
X004954Y023850D03*
X004246Y023850D03*
X004246Y000850D03*
X004954Y000850D03*
X002954Y000850D03*
X002246Y000850D03*
D14*
X016100Y007921D03*
X016100Y011779D03*
D15*
X012350Y011484D03*
X012350Y013216D03*
X009216Y018350D03*
X007484Y018350D03*
X007234Y023600D03*
X008966Y023600D03*
D16*
X013667Y015474D03*
X013667Y014726D03*
X014533Y015100D03*
D17*
X007807Y008100D03*
X004893Y008100D03*
D18*
X002600Y005775D03*
X002100Y005775D03*
X001600Y005775D03*
X001100Y005775D03*
X001100Y003925D03*
X001600Y003925D03*
X002100Y003925D03*
X002600Y003925D03*
D19*
X006650Y014558D02*
X006650Y015443D01*
X008850Y015443D02*
X008850Y014558D01*
X011050Y014558D02*
X011050Y015443D01*
X011050Y020058D02*
X011050Y020943D01*
X008850Y020943D02*
X008850Y020058D01*
X006650Y020058D02*
X006650Y020943D01*
D20*
X007100Y024800D02*
X007100Y025400D01*
X006100Y025400D02*
X006100Y024800D01*
X005100Y024800D02*
X005100Y025400D01*
X004100Y025400D02*
X004100Y024800D01*
X003100Y024800D02*
X003100Y025400D01*
X008100Y025400D02*
X008100Y024800D01*
X009100Y024800D02*
X009100Y025400D01*
X010100Y025400D02*
X010100Y024800D01*
X011100Y024800D02*
X011100Y025400D01*
X012100Y025400D02*
X012100Y024800D01*
X013100Y024800D02*
X013100Y025400D01*
X014100Y025400D02*
X014100Y024800D01*
X014100Y002400D02*
X014100Y001800D01*
X013100Y001800D02*
X013100Y002400D01*
X012100Y002400D02*
X012100Y001800D01*
X011100Y001800D02*
X011100Y002400D01*
X010100Y002400D02*
X010100Y001800D01*
X009100Y001800D02*
X009100Y002400D01*
X008100Y002400D02*
X008100Y001800D01*
X007100Y001800D02*
X007100Y002400D01*
X006100Y002400D02*
X006100Y001800D01*
X005100Y001800D02*
X005100Y002400D01*
X004100Y002400D02*
X004100Y001800D01*
X003100Y001800D02*
X003100Y002400D01*
D21*
X007600Y011720D03*
X007600Y012980D03*
D22*
X016350Y017413D03*
X016350Y019713D03*
X016350Y022987D03*
X016350Y025287D03*
D23*
X012350Y009850D03*
X010350Y009850D03*
D24*
X011350Y005350D03*
D25*
X005600Y005854D03*
X005600Y003846D03*
D26*
X007600Y009799D03*
X007600Y010901D03*
D27*
X015570Y002740D03*
X015570Y000960D03*
X018130Y000960D03*
X018130Y002740D03*
D28*
X009118Y016850D03*
X007582Y016850D03*
X007332Y022100D03*
X008868Y022100D03*
D29*
X001850Y018350D03*
X001850Y013350D03*
X001850Y008350D03*
D30*
X001850Y010319D03*
X001850Y015319D03*
X001850Y020319D03*
D31*
X001850Y018350D02*
X003100Y018350D01*
X003850Y019100D01*
X003850Y019998D01*
X004100Y020248D01*
X007234Y023600D02*
X007350Y025100D01*
X007100Y025100D01*
X006100Y025100D01*
X005350Y025100D01*
X005100Y025100D01*
X004100Y025100D01*
X003100Y025100D01*
X007350Y025100D02*
X008100Y025100D01*
X009100Y025100D02*
X014100Y025100D01*
X013100Y025100D01*
X012100Y025100D01*
X011100Y025100D01*
X010100Y025100D01*
X009100Y025100D01*
X008966Y023600D02*
X008868Y022100D01*
X008850Y020500D01*
X009216Y018350D02*
X009087Y016638D01*
X009118Y016850D01*
X009087Y016638D02*
X008850Y015000D01*
X008220Y012980D02*
X007600Y012980D01*
X008220Y012980D02*
X008850Y012350D01*
X007600Y011720D02*
X007600Y010901D01*
X007100Y002100D02*
X006100Y002100D01*
X007100Y002100D02*
X008100Y002100D01*
X009100Y002100D01*
X010100Y002100D01*
X011100Y002100D01*
X012100Y002100D01*
X013100Y002100D01*
X014100Y002100D01*
D32*
X011100Y002100D02*
X011070Y002130D01*
D33*
X009100Y003600D02*
X013600Y003600D01*
X017100Y007100D01*
X017100Y008600D01*
X015100Y008600D01*
X013600Y007100D01*
X009100Y007100D01*
X008350Y008850D01*
X008350Y007350D01*
X007100Y007350D01*
X007100Y010100D01*
X008100Y010100D01*
X008350Y008850D01*
X007100Y008850D01*
X007100Y007350D01*
X007350Y007350D01*
X009100Y003600D01*
X009032Y003746D02*
X013746Y003746D01*
X013904Y003904D02*
X008958Y003904D01*
X008884Y004063D02*
X014063Y004063D01*
X014221Y004221D02*
X008810Y004221D01*
X008736Y004380D02*
X014380Y004380D01*
X014538Y004538D02*
X008662Y004538D01*
X008588Y004697D02*
X014697Y004697D01*
X014855Y004855D02*
X008514Y004855D01*
X008440Y005014D02*
X015014Y005014D01*
X015172Y005172D02*
X008366Y005172D01*
X008292Y005331D02*
X015331Y005331D01*
X015489Y005489D02*
X008218Y005489D01*
X008144Y005648D02*
X015648Y005648D01*
X015806Y005806D02*
X008071Y005806D01*
X007997Y005965D02*
X015965Y005965D01*
X016123Y006123D02*
X007923Y006123D01*
X007849Y006282D02*
X016282Y006282D01*
X016440Y006440D02*
X007775Y006440D01*
X007701Y006599D02*
X016599Y006599D01*
X016757Y006757D02*
X007627Y006757D01*
X007553Y006916D02*
X016916Y006916D01*
X017074Y007074D02*
X007479Y007074D01*
X007405Y007233D02*
X009043Y007233D01*
X008975Y007391D02*
X007100Y007391D01*
X008350Y007391D01*
X008350Y007550D02*
X007100Y007550D01*
X008907Y007550D01*
X008839Y007708D02*
X007100Y007708D01*
X008350Y007708D01*
X008350Y007867D02*
X007100Y007867D01*
X008771Y007867D01*
X008704Y008025D02*
X007100Y008025D01*
X008350Y008025D01*
X008350Y008184D02*
X007100Y008184D01*
X008636Y008184D01*
X008568Y008342D02*
X007100Y008342D01*
X008350Y008342D01*
X008350Y008501D02*
X007100Y008501D01*
X008500Y008501D01*
X008432Y008659D02*
X007100Y008659D01*
X008350Y008659D01*
X008350Y008818D02*
X007100Y008818D01*
X008364Y008818D01*
X008325Y008976D02*
X007100Y008976D01*
X007100Y009135D02*
X008293Y009135D01*
X008261Y009293D02*
X007100Y009293D01*
X007100Y009452D02*
X008230Y009452D01*
X008198Y009610D02*
X007100Y009610D01*
X007100Y009769D02*
X008166Y009769D01*
X008135Y009927D02*
X007100Y009927D01*
X007100Y010086D02*
X008103Y010086D01*
X008632Y010561D02*
X010850Y010561D01*
X010850Y010403D02*
X008765Y010403D01*
X008897Y010244D02*
X010850Y010244D01*
X010850Y010086D02*
X009029Y010086D01*
X009161Y009927D02*
X010850Y009927D01*
X010850Y009769D02*
X009293Y009769D01*
X009425Y009610D02*
X010850Y009610D01*
X010850Y009452D02*
X009557Y009452D01*
X009689Y009293D02*
X010850Y009293D01*
X010850Y009135D02*
X009821Y009135D01*
X009850Y009100D02*
X008600Y010600D01*
X008600Y012600D01*
X010850Y012600D01*
X010850Y011850D01*
X008600Y011850D01*
X008600Y012100D01*
X008100Y012600D01*
X007100Y012600D01*
X006350Y014100D01*
X006350Y024100D01*
X007600Y024100D01*
X007350Y014100D01*
X010850Y012600D01*
X010850Y009100D01*
X009850Y009100D01*
X010850Y010720D02*
X008600Y010720D01*
X008600Y010878D02*
X010850Y010878D01*
X010850Y011037D02*
X008600Y011037D01*
X008600Y011195D02*
X010850Y011195D01*
X010850Y011354D02*
X008600Y011354D01*
X008600Y011512D02*
X010850Y011512D01*
X010850Y011671D02*
X008600Y011671D01*
X008600Y011829D02*
X010850Y011829D01*
X010850Y011988D02*
X008600Y011988D01*
X010850Y011988D01*
X010850Y012146D02*
X008554Y012146D01*
X008600Y012146D02*
X010850Y012146D01*
X010850Y012305D02*
X008395Y012305D01*
X008600Y012305D02*
X010850Y012305D01*
X010850Y012463D02*
X008237Y012463D01*
X008600Y012463D02*
X010850Y012463D01*
X010800Y012622D02*
X007089Y012622D01*
X007010Y012780D02*
X010430Y012780D01*
X010060Y012939D02*
X006931Y012939D01*
X006851Y013097D02*
X009690Y013097D01*
X009320Y013256D02*
X006772Y013256D01*
X006693Y013414D02*
X008951Y013414D01*
X008581Y013573D02*
X006614Y013573D01*
X006534Y013731D02*
X008211Y013731D01*
X007841Y013890D02*
X006455Y013890D01*
X006376Y014048D02*
X007471Y014048D01*
X007353Y014207D02*
X006350Y014207D01*
X006350Y014365D02*
X007357Y014365D01*
X007361Y014524D02*
X006350Y014524D01*
X006350Y014682D02*
X007365Y014682D01*
X007369Y014841D02*
X006350Y014841D01*
X006350Y014999D02*
X007372Y014999D01*
X007376Y015158D02*
X006350Y015158D01*
X006350Y015316D02*
X007380Y015316D01*
X007384Y015475D02*
X006350Y015475D01*
X006350Y015633D02*
X007388Y015633D01*
X007392Y015792D02*
X006350Y015792D01*
X006350Y015950D02*
X007396Y015950D01*
X007400Y016109D02*
X006350Y016109D01*
X006350Y016267D02*
X007404Y016267D01*
X007408Y016426D02*
X006350Y016426D01*
X006350Y016584D02*
X007412Y016584D01*
X007416Y016743D02*
X006350Y016743D01*
X006350Y016901D02*
X007420Y016901D01*
X007424Y017060D02*
X006350Y017060D01*
X006350Y017218D02*
X007428Y017218D01*
X007432Y017377D02*
X006350Y017377D01*
X006350Y017535D02*
X007436Y017535D01*
X007440Y017694D02*
X006350Y017694D01*
X006350Y017852D02*
X007444Y017852D01*
X007448Y018011D02*
X006350Y018011D01*
X006350Y018169D02*
X007452Y018169D01*
X007456Y018328D02*
X006350Y018328D01*
X006350Y018486D02*
X007460Y018486D01*
X007464Y018645D02*
X006350Y018645D01*
X006350Y018803D02*
X007468Y018803D01*
X007472Y018962D02*
X006350Y018962D01*
X006350Y019120D02*
X007476Y019120D01*
X007479Y019279D02*
X006350Y019279D01*
X006350Y019437D02*
X007483Y019437D01*
X007487Y019596D02*
X006350Y019596D01*
X006350Y019754D02*
X007491Y019754D01*
X007495Y019913D02*
X006350Y019913D01*
X006350Y020071D02*
X007499Y020071D01*
X007503Y020230D02*
X006350Y020230D01*
X006350Y020388D02*
X007507Y020388D01*
X007511Y020547D02*
X006350Y020547D01*
X006350Y020705D02*
X007515Y020705D01*
X007519Y020864D02*
X006350Y020864D01*
X006350Y021022D02*
X007523Y021022D01*
X007527Y021181D02*
X006350Y021181D01*
X006350Y021339D02*
X007531Y021339D01*
X007535Y021498D02*
X006350Y021498D01*
X006350Y021656D02*
X007539Y021656D01*
X007543Y021815D02*
X006350Y021815D01*
X006350Y021973D02*
X007547Y021973D01*
X007551Y022132D02*
X006350Y022132D01*
X006350Y022290D02*
X007555Y022290D01*
X007559Y022449D02*
X006350Y022449D01*
X006350Y022607D02*
X007563Y022607D01*
X007567Y022766D02*
X006350Y022766D01*
X006350Y022924D02*
X007571Y022924D01*
X007575Y023083D02*
X006350Y023083D01*
X006350Y023241D02*
X007579Y023241D01*
X007582Y023400D02*
X006350Y023400D01*
X006350Y023558D02*
X007586Y023558D01*
X007590Y023717D02*
X006350Y023717D01*
X006350Y023875D02*
X007594Y023875D01*
X007598Y024034D02*
X006350Y024034D01*
X004632Y019309D02*
X004765Y019260D01*
X004891Y019191D01*
X005005Y019106D01*
X005106Y019005D01*
X005191Y018891D01*
X005260Y018765D01*
X005309Y018632D01*
X005340Y018492D01*
X005350Y018350D01*
X005350Y007350D01*
X006850Y005350D01*
X004350Y005350D01*
X001350Y007850D01*
X001350Y008850D01*
X002850Y009350D01*
X002850Y012100D01*
X001350Y012600D01*
X001350Y013850D01*
X002850Y014350D01*
X002600Y017100D01*
X001350Y017850D01*
X001350Y018850D01*
X002600Y019350D01*
X004350Y019350D01*
X004492Y019340D01*
X004632Y019309D01*
X004715Y019279D02*
X002421Y019279D01*
X002025Y019120D02*
X004986Y019120D01*
X005138Y018962D02*
X001629Y018962D01*
X001350Y018803D02*
X005239Y018803D01*
X005305Y018645D02*
X001350Y018645D01*
X001350Y018486D02*
X005340Y018486D01*
X005350Y018328D02*
X001350Y018328D01*
X001350Y018169D02*
X005350Y018169D01*
X005350Y018011D02*
X001350Y018011D01*
X001350Y017852D02*
X005350Y017852D01*
X005350Y017694D02*
X001611Y017694D01*
X001875Y017535D02*
X005350Y017535D01*
X005350Y017377D02*
X002139Y017377D01*
X002403Y017218D02*
X005350Y017218D01*
X005350Y017060D02*
X002604Y017060D01*
X002618Y016901D02*
X005350Y016901D01*
X005350Y016743D02*
X002632Y016743D01*
X002647Y016584D02*
X005350Y016584D01*
X005350Y016426D02*
X002661Y016426D01*
X002676Y016267D02*
X005350Y016267D01*
X005350Y016109D02*
X002690Y016109D01*
X002705Y015950D02*
X005350Y015950D01*
X005350Y015792D02*
X002719Y015792D01*
X002733Y015633D02*
X005350Y015633D01*
X005350Y015475D02*
X002748Y015475D01*
X002762Y015316D02*
X005350Y015316D01*
X005350Y015158D02*
X002777Y015158D01*
X002791Y014999D02*
X005350Y014999D01*
X005350Y014841D02*
X002805Y014841D01*
X002820Y014682D02*
X005350Y014682D01*
X005350Y014524D02*
X002834Y014524D01*
X002849Y014365D02*
X005350Y014365D01*
X005350Y014207D02*
X002420Y014207D01*
X001944Y014048D02*
X005350Y014048D01*
X005350Y013890D02*
X001469Y013890D01*
X001350Y013731D02*
X005350Y013731D01*
X005350Y013573D02*
X001350Y013573D01*
X001350Y013414D02*
X005350Y013414D01*
X005350Y013256D02*
X001350Y013256D01*
X001350Y013097D02*
X005350Y013097D01*
X005350Y012939D02*
X001350Y012939D01*
X001350Y012780D02*
X005350Y012780D01*
X005350Y012622D02*
X001350Y012622D01*
X001761Y012463D02*
X005350Y012463D01*
X005350Y012305D02*
X002236Y012305D01*
X002712Y012146D02*
X005350Y012146D01*
X005350Y011988D02*
X002850Y011988D01*
X002850Y011829D02*
X005350Y011829D01*
X005350Y011671D02*
X002850Y011671D01*
X002850Y011512D02*
X005350Y011512D01*
X005350Y011354D02*
X002850Y011354D01*
X002850Y011195D02*
X005350Y011195D01*
X005350Y011037D02*
X002850Y011037D01*
X002850Y010878D02*
X005350Y010878D01*
X005350Y010720D02*
X002850Y010720D01*
X002850Y010561D02*
X005350Y010561D01*
X005350Y010403D02*
X002850Y010403D01*
X002850Y010244D02*
X005350Y010244D01*
X005350Y010086D02*
X002850Y010086D01*
X002850Y009927D02*
X005350Y009927D01*
X005350Y009769D02*
X002850Y009769D01*
X002850Y009610D02*
X005350Y009610D01*
X005350Y009452D02*
X002850Y009452D01*
X002679Y009293D02*
X005350Y009293D01*
X005350Y009135D02*
X002204Y009135D01*
X001728Y008976D02*
X005350Y008976D01*
X005350Y008818D02*
X001350Y008818D01*
X001350Y008659D02*
X005350Y008659D01*
X005350Y008501D02*
X001350Y008501D01*
X001350Y008342D02*
X005350Y008342D01*
X005350Y008184D02*
X001350Y008184D01*
X001350Y008025D02*
X005350Y008025D01*
X005350Y007867D02*
X001350Y007867D01*
X001520Y007708D02*
X005350Y007708D01*
X005350Y007550D02*
X001711Y007550D01*
X001901Y007391D02*
X005350Y007391D01*
X005438Y007233D02*
X002091Y007233D01*
X002281Y007074D02*
X005557Y007074D01*
X005676Y006916D02*
X002471Y006916D01*
X002662Y006757D02*
X005795Y006757D01*
X005914Y006599D02*
X002852Y006599D01*
X003042Y006440D02*
X006032Y006440D01*
X006151Y006282D02*
X003232Y006282D01*
X003422Y006123D02*
X006270Y006123D01*
X006389Y005965D02*
X003613Y005965D01*
X003803Y005806D02*
X006508Y005806D01*
X006600Y005806D02*
X004600Y005806D01*
X004600Y005648D02*
X006600Y005648D01*
X006627Y005648D02*
X003993Y005648D01*
X004183Y005489D02*
X006746Y005489D01*
X006600Y005600D02*
X004600Y005600D01*
X004600Y006100D01*
X004350Y007350D01*
X004350Y008850D01*
X005600Y008850D01*
X005600Y007350D01*
X006600Y006100D01*
X006600Y005600D01*
X006600Y005965D02*
X004600Y005965D01*
X004595Y006123D02*
X006582Y006123D01*
X006455Y006282D02*
X004564Y006282D01*
X004532Y006440D02*
X006328Y006440D01*
X006201Y006599D02*
X004500Y006599D01*
X004469Y006757D02*
X006074Y006757D01*
X005948Y006916D02*
X004437Y006916D01*
X004405Y007074D02*
X005821Y007074D01*
X005694Y007233D02*
X004373Y007233D01*
X004350Y007391D02*
X005600Y007391D01*
X005600Y007550D02*
X004350Y007550D01*
X004350Y007708D02*
X005600Y007708D01*
X005600Y007867D02*
X004350Y007867D01*
X004350Y008025D02*
X005600Y008025D01*
X005600Y008184D02*
X004350Y008184D01*
X004350Y008342D02*
X005600Y008342D01*
X005600Y008501D02*
X004350Y008501D01*
X004350Y008659D02*
X005600Y008659D01*
X005600Y008818D02*
X004350Y008818D01*
X002850Y004600D02*
X002350Y004600D01*
X002100Y004350D01*
X002100Y003925D01*
X001600Y003925D02*
X001600Y003600D01*
X003100Y002100D01*
X002954Y001954D01*
X002954Y000850D01*
X002246Y000850D02*
X001600Y000850D01*
X004100Y002425D02*
X002600Y003925D01*
X002850Y004600D02*
X004100Y003350D01*
X005350Y003350D01*
X005350Y003596D01*
X005600Y003846D01*
X004997Y003112D02*
X006850Y003112D01*
X006850Y003270D02*
X004733Y003270D01*
X004600Y003350D02*
X004600Y004100D01*
X006850Y004100D01*
X006850Y002600D01*
X014600Y002600D01*
X014600Y001350D01*
X005850Y001350D01*
X005850Y002600D01*
X004600Y003350D01*
X004600Y003429D02*
X006850Y003429D01*
X006850Y003587D02*
X004600Y003587D01*
X004600Y003746D02*
X006850Y003746D01*
X006850Y003904D02*
X004600Y003904D01*
X004600Y004063D02*
X006850Y004063D01*
X006850Y002953D02*
X005262Y002953D01*
X005526Y002795D02*
X006850Y002795D01*
X006850Y002636D02*
X005790Y002636D01*
X005850Y002478D02*
X014600Y002478D01*
X014600Y002319D02*
X005850Y002319D01*
X005850Y002161D02*
X014600Y002161D01*
X014600Y002002D02*
X005850Y002002D01*
X005850Y001844D02*
X014600Y001844D01*
X014600Y001685D02*
X005850Y001685D01*
X005850Y001527D02*
X014600Y001527D01*
X014600Y001368D02*
X005850Y001368D01*
X006100Y001600D02*
X006100Y002100D01*
X006100Y001600D02*
X005350Y000850D01*
X004954Y000850D01*
X004246Y000850D02*
X004100Y000996D01*
X004100Y002100D01*
X004100Y002425D01*
X013733Y007233D02*
X017100Y007233D01*
X016923Y007233D01*
X017100Y007100D02*
X015100Y008600D01*
X017100Y008600D01*
X017100Y007100D01*
X017100Y007391D02*
X013891Y007391D01*
X014050Y007550D02*
X017100Y007550D01*
X016501Y007550D01*
X016289Y007708D02*
X017100Y007708D01*
X014208Y007708D01*
X014367Y007867D02*
X017100Y007867D01*
X016078Y007867D01*
X015867Y008025D02*
X017100Y008025D01*
X014525Y008025D01*
X014684Y008184D02*
X017100Y008184D01*
X015655Y008184D01*
X015444Y008342D02*
X017100Y008342D01*
X014842Y008342D01*
X015001Y008501D02*
X017100Y008501D01*
X015233Y008501D01*
X016712Y007391D02*
X017100Y007391D01*
X016850Y005100D02*
X015570Y002740D01*
X015850Y011850D02*
X017600Y013600D01*
X017600Y013748D01*
X017100Y015600D02*
X015350Y017350D01*
X015350Y020350D01*
X017600Y020350D01*
X017600Y017600D01*
X018100Y016850D01*
X018100Y015600D01*
X017100Y015600D01*
X017067Y015633D02*
X018100Y015633D01*
X018100Y015792D02*
X016908Y015792D01*
X016750Y015950D02*
X018100Y015950D01*
X018100Y016109D02*
X016591Y016109D01*
X016433Y016267D02*
X018100Y016267D01*
X018100Y016426D02*
X016274Y016426D01*
X016116Y016584D02*
X018100Y016584D01*
X018100Y016743D02*
X015957Y016743D01*
X015799Y016901D02*
X018066Y016901D01*
X017960Y017060D02*
X015640Y017060D01*
X015482Y017218D02*
X017855Y017218D01*
X017749Y017377D02*
X015350Y017377D01*
X015350Y017535D02*
X017643Y017535D01*
X017600Y017694D02*
X015350Y017694D01*
X015350Y017852D02*
X017600Y017852D01*
X017600Y018011D02*
X015350Y018011D01*
X015350Y018169D02*
X017600Y018169D01*
X017600Y018328D02*
X015350Y018328D01*
X015350Y018486D02*
X017600Y018486D01*
X017600Y018645D02*
X015350Y018645D01*
X015350Y018803D02*
X017600Y018803D01*
X017600Y018962D02*
X015350Y018962D01*
X015350Y019120D02*
X017600Y019120D01*
X017600Y019279D02*
X015350Y019279D01*
X015350Y019437D02*
X017600Y019437D01*
X017600Y019596D02*
X015350Y019596D01*
X015350Y019754D02*
X017600Y019754D01*
X017600Y019913D02*
X015350Y019913D01*
X015350Y020071D02*
X017600Y020071D01*
X017600Y020230D02*
X015350Y020230D01*
X011850Y016100D02*
X011100Y016100D01*
D34*
X001600Y000850D03*
X003850Y004600D03*
X003100Y005600D03*
X007350Y004600D03*
X008850Y011350D03*
X008850Y011850D03*
X008850Y012350D03*
X009350Y012350D03*
X009350Y011850D03*
X009350Y011350D03*
X009850Y011350D03*
X009850Y011850D03*
X009850Y012350D03*
X010350Y012350D03*
X010350Y011850D03*
X010350Y011350D03*
X011850Y016100D03*
X012600Y016850D03*
X011100Y017850D03*
X012600Y021100D03*
X014600Y018350D03*
X016100Y014350D03*
X018100Y012600D03*
X018100Y017850D03*
X010100Y023350D03*
X005600Y023350D03*
X005350Y019850D03*
X001350Y024100D03*
X016850Y005100D03*
X018100Y006100D03*
D35*
X016350Y022100D02*
X016350Y025350D01*
X009100Y025100D01*
X016350Y022100D01*
X016350Y022533D02*
X015305Y022533D01*
X016350Y023031D02*
X014100Y023031D01*
X012895Y023530D02*
X016350Y023530D01*
X016350Y024028D02*
X011691Y024028D01*
X010486Y024527D02*
X016350Y024527D01*
X016350Y025025D02*
X009281Y025025D01*
X005350Y025100D02*
X005350Y024246D01*
X004954Y023850D01*
D36*
X004350Y023850D02*
X004350Y023350D01*
X005600Y023350D01*
X004350Y023350D02*
X004350Y022702D01*
X004100Y022452D01*
X005350Y019850D02*
X006600Y018600D01*
X007234Y018600D01*
X007484Y018350D01*
X010100Y023350D02*
X011350Y023350D01*
X014100Y020600D01*
X014100Y019880D01*
X013600Y019880D02*
X013600Y019100D01*
X015737Y019100D01*
X016350Y019713D01*
X014600Y018350D02*
X014600Y017100D01*
X014600Y016600D01*
X014454Y016454D01*
X014454Y016350D01*
X014533Y016271D01*
X014533Y015100D01*
X014454Y015021D01*
X014454Y013600D01*
X013746Y013600D02*
X013746Y012880D01*
X012350Y011484D01*
X012350Y013216D02*
X012216Y013350D01*
X011204Y013350D01*
X010496Y013350D02*
X010100Y013350D01*
X009850Y013100D01*
X009850Y012350D01*
X011050Y015000D02*
X011100Y015050D01*
X011100Y016100D01*
X011100Y016496D01*
X012350Y017600D02*
X011704Y018246D01*
X011600Y018246D01*
X011600Y018954D02*
X011674Y018954D01*
X012600Y019880D01*
X013100Y019880D02*
X013100Y019100D01*
X012600Y018600D01*
X012600Y017820D01*
X012600Y017600D01*
X012350Y017600D01*
X012600Y017600D02*
X012600Y016850D01*
X013100Y017820D02*
X013100Y015850D01*
X012350Y015100D01*
X012350Y013216D01*
X013746Y014647D02*
X013667Y014726D01*
X013746Y014647D02*
X013746Y013600D01*
X013667Y015474D02*
X013476Y015474D01*
X013100Y015850D01*
X013600Y016496D02*
X013746Y016350D01*
X013600Y016496D02*
X013600Y017820D01*
X014100Y017820D02*
X014100Y017100D01*
X014350Y016850D01*
X014600Y017100D01*
X016100Y014350D02*
X016600Y013850D01*
X017498Y013850D01*
X017600Y013748D01*
D37*
X018100Y012600D02*
X018100Y007100D01*
X018100Y006100D01*
X018100Y007100D02*
X014350Y003100D01*
X008350Y003100D01*
X007350Y004600D01*
X003850Y004600D02*
X003100Y005100D01*
X002350Y005100D01*
X002100Y005350D01*
X002100Y005775D01*
X001600Y005775D02*
X001600Y006600D01*
X000350Y007850D01*
X000350Y023100D01*
X001350Y024100D01*
X010996Y021850D02*
X010996Y020554D01*
X011050Y020500D01*
X011704Y021850D02*
X012100Y021850D01*
X012600Y021350D01*
X012600Y021100D01*
X011100Y017850D02*
X011100Y017204D01*
X016350Y017413D02*
X016787Y017850D01*
X018100Y017850D01*
X003100Y005600D02*
X002600Y005775D01*
D38*
X014850Y010850D02*
X014850Y012600D01*
X017100Y014100D01*
X018100Y014100D01*
X018100Y013350D01*
X017100Y012600D01*
X017100Y010850D01*
X014850Y010850D01*
X014850Y010929D02*
X017100Y010929D01*
X017100Y011248D02*
X014850Y011248D01*
X014850Y011566D02*
X017100Y011566D01*
X017100Y011885D02*
X014850Y011885D01*
X014850Y012203D02*
X017100Y012203D01*
X017100Y012522D02*
X014850Y012522D01*
X015210Y012840D02*
X017420Y012840D01*
X017845Y013159D02*
X015688Y013159D01*
X016166Y013477D02*
X018100Y013477D01*
X018100Y013796D02*
X016643Y013796D01*
X004100Y022452D02*
X004246Y023850D01*
D39*
X012350Y011484D02*
X012350Y009850D01*
M02*
