G75*
G70*
%OFA0B0*%
%FSLAX24Y24*%
%IPPOS*%
%LPD*%
%AMOC8*
5,1,8,0,0,1.08239X$1,22.5*
%
%ADD10C,0.0885*%
%ADD11C,0.0600*%
%ADD12C,0.1400*%
%ADD13C,0.0740*%
%ADD14R,0.0630X0.1063*%
%ADD15R,0.0945X0.0945*%
%ADD16R,0.0800X0.0800*%
%ADD17C,0.0800*%
%ADD18R,0.0579X0.0500*%
%ADD19C,0.0357*%
%ADD20C,0.0160*%
%ADD21C,0.0240*%
%ADD22C,0.0320*%
%ADD23C,0.0660*%
%ADD24C,0.0120*%
D10*
X006650Y014558D02*
X006650Y015443D01*
X008850Y015443D02*
X008850Y014558D01*
X011050Y014558D02*
X011050Y015443D01*
X011050Y020058D02*
X011050Y020943D01*
X008850Y020943D02*
X008850Y020058D01*
X006650Y020058D02*
X006650Y020943D01*
D11*
X007100Y024800D02*
X007100Y025400D01*
X006100Y025400D02*
X006100Y024800D01*
X005100Y024800D02*
X005100Y025400D01*
X004100Y025400D02*
X004100Y024800D01*
X003100Y024800D02*
X003100Y025400D01*
X008100Y025400D02*
X008100Y024800D01*
X009100Y024800D02*
X009100Y025400D01*
X010100Y025400D02*
X010100Y024800D01*
X011100Y024800D02*
X011100Y025400D01*
X012100Y025400D02*
X012100Y024800D01*
X013100Y024800D02*
X013100Y025400D01*
X014100Y025400D02*
X014100Y024800D01*
X014100Y002400D02*
X014100Y001800D01*
X013100Y001800D02*
X013100Y002400D01*
X012100Y002400D02*
X012100Y001800D01*
X011100Y001800D02*
X011100Y002400D01*
X010100Y002400D02*
X010100Y001800D01*
X009100Y001800D02*
X009100Y002400D01*
X008100Y002400D02*
X008100Y001800D01*
X007100Y001800D02*
X007100Y002400D01*
X006100Y002400D02*
X006100Y001800D01*
X005100Y001800D02*
X005100Y002400D01*
X004100Y002400D02*
X004100Y001800D01*
X003100Y001800D02*
X003100Y002400D01*
D12*
X016350Y017413D03*
X016350Y019713D03*
X016350Y022987D03*
X016350Y025287D03*
D13*
X015570Y002740D03*
X015570Y000960D03*
X018130Y000960D03*
X018130Y002740D03*
D14*
X016401Y004100D03*
X015299Y004100D03*
D15*
X003600Y013484D03*
X003600Y015216D03*
X003600Y018484D03*
X003600Y020216D03*
D16*
X001850Y018350D03*
X001850Y013350D03*
X001850Y008350D03*
D17*
X001850Y010319D03*
X001850Y015319D03*
X001850Y020319D03*
D18*
X017600Y005446D03*
X017600Y003754D03*
D19*
X001600Y000850D03*
X003850Y004600D03*
X003100Y005600D03*
X007350Y004600D03*
X008850Y011350D03*
X008850Y011850D03*
X008850Y012350D03*
X009350Y012350D03*
X009350Y011850D03*
X009350Y011350D03*
X009850Y011350D03*
X009850Y011850D03*
X009850Y012350D03*
X010350Y012350D03*
X010350Y011850D03*
X010350Y011350D03*
X011850Y016100D03*
X012600Y016850D03*
X011100Y017850D03*
X012600Y021100D03*
X014600Y018350D03*
X016100Y014350D03*
X018100Y012600D03*
X018100Y017850D03*
X010100Y023350D03*
X005600Y023350D03*
X005350Y019850D03*
X001350Y024100D03*
X016850Y005100D03*
X018100Y006100D03*
D20*
X016850Y005100D02*
X016850Y011600D01*
X011850Y016100D01*
X009478Y015316D02*
X007953Y015316D01*
X007938Y015475D02*
X009465Y015475D01*
X009451Y015633D02*
X007922Y015633D01*
X007906Y015792D02*
X009438Y015792D01*
X009425Y015950D02*
X007890Y015950D01*
X007874Y016109D02*
X009412Y016109D01*
X009399Y016267D02*
X007858Y016267D01*
X007850Y016350D02*
X006350Y016350D01*
X005850Y016100D01*
X005600Y015850D01*
X003850Y014600D01*
X001100Y014600D01*
X001100Y015850D01*
X005100Y016850D01*
X009350Y016850D01*
X009600Y013850D01*
X008100Y013850D01*
X007850Y016350D01*
X007969Y015158D02*
X009491Y015158D01*
X009504Y014999D02*
X007985Y014999D01*
X008001Y014841D02*
X009517Y014841D01*
X009531Y014682D02*
X008017Y014682D01*
X008033Y014524D02*
X009544Y014524D01*
X009557Y014365D02*
X008048Y014365D01*
X008064Y014207D02*
X009570Y014207D01*
X009583Y014048D02*
X008080Y014048D01*
X008096Y013890D02*
X009597Y013890D01*
X008600Y012600D02*
X010850Y012600D01*
X010850Y009850D01*
X001350Y009850D01*
X001600Y010850D01*
X005850Y012600D01*
X010850Y012600D01*
X010850Y003350D01*
X011600Y002600D01*
X014600Y002600D01*
X014600Y001350D01*
X005850Y001350D01*
X005850Y002600D01*
X008600Y003350D01*
X008600Y012600D01*
X008600Y012463D02*
X010850Y012463D01*
X005517Y012463D01*
X005132Y012305D02*
X010850Y012305D01*
X008600Y012305D01*
X008600Y012146D02*
X010850Y012146D01*
X004747Y012146D01*
X004363Y011988D02*
X010850Y011988D01*
X008600Y011988D01*
X008600Y011829D02*
X010850Y011829D01*
X003978Y011829D01*
X003593Y011671D02*
X010850Y011671D01*
X008600Y011671D01*
X008600Y011512D02*
X010850Y011512D01*
X003208Y011512D01*
X002823Y011354D02*
X010850Y011354D01*
X008600Y011354D01*
X008600Y011195D02*
X010850Y011195D01*
X002438Y011195D01*
X002053Y011037D02*
X010850Y011037D01*
X008600Y011037D01*
X008600Y010878D02*
X010850Y010878D01*
X001668Y010878D01*
X001567Y010720D02*
X010850Y010720D01*
X008600Y010720D01*
X008600Y010561D02*
X010850Y010561D01*
X001528Y010561D01*
X001488Y010403D02*
X010850Y010403D01*
X008600Y010403D01*
X008600Y010244D02*
X010850Y010244D01*
X001449Y010244D01*
X001409Y010086D02*
X010850Y010086D01*
X008600Y010086D01*
X008600Y009927D02*
X010850Y009927D01*
X001369Y009927D01*
X001100Y014682D02*
X003965Y014682D01*
X004187Y014841D02*
X001100Y014841D01*
X001100Y014999D02*
X004409Y014999D01*
X004631Y015158D02*
X001100Y015158D01*
X001100Y015316D02*
X004852Y015316D01*
X005074Y015475D02*
X001100Y015475D01*
X001100Y015633D02*
X005296Y015633D01*
X005518Y015792D02*
X001100Y015792D01*
X001500Y015950D02*
X005700Y015950D01*
X005867Y016109D02*
X002134Y016109D01*
X002768Y016267D02*
X006184Y016267D01*
X004670Y016743D02*
X009359Y016743D01*
X009372Y016584D02*
X004036Y016584D01*
X003402Y016426D02*
X009385Y016426D01*
X009350Y019350D02*
X008350Y019600D01*
X008350Y021350D01*
X006350Y022100D01*
X002100Y019850D01*
X001350Y019850D01*
X001350Y020600D01*
X004100Y022350D01*
X009350Y022350D01*
X009600Y019350D01*
X008600Y019350D01*
X007850Y021850D01*
X005850Y021850D01*
X004100Y020600D01*
X004100Y019600D01*
X003100Y019600D01*
X003100Y020600D01*
X004100Y022350D01*
X009350Y022350D01*
X009350Y019350D01*
X009350Y019437D02*
X009002Y019437D01*
X009350Y019596D02*
X008368Y019596D01*
X008526Y019596D02*
X009580Y019596D01*
X009566Y019754D02*
X008479Y019754D01*
X008350Y019754D02*
X009350Y019754D01*
X009350Y019913D02*
X008350Y019913D01*
X008431Y019913D02*
X009553Y019913D01*
X009540Y020071D02*
X008384Y020071D01*
X008350Y020071D02*
X009350Y020071D01*
X009350Y020230D02*
X008350Y020230D01*
X008336Y020230D02*
X009527Y020230D01*
X009513Y020388D02*
X008289Y020388D01*
X008350Y020388D02*
X009350Y020388D01*
X009350Y020547D02*
X008350Y020547D01*
X008241Y020547D02*
X009500Y020547D01*
X009487Y020705D02*
X008193Y020705D01*
X008350Y020705D02*
X009350Y020705D01*
X009350Y020864D02*
X008350Y020864D01*
X008350Y021022D02*
X009350Y021022D01*
X009461Y021022D02*
X008098Y021022D01*
X008051Y021181D02*
X009447Y021181D01*
X009350Y021181D02*
X008350Y021181D01*
X008350Y021339D02*
X009350Y021339D01*
X009434Y021339D02*
X008003Y021339D01*
X007957Y021498D02*
X009350Y021498D01*
X009421Y021498D02*
X007956Y021498D01*
X007908Y021656D02*
X009408Y021656D01*
X009350Y021656D02*
X007534Y021656D01*
X007861Y021815D02*
X009395Y021815D01*
X009350Y021815D02*
X007111Y021815D01*
X006689Y021973D02*
X009350Y021973D01*
X009381Y021973D02*
X003885Y021973D01*
X003975Y022132D02*
X009368Y022132D01*
X009350Y022132D02*
X003757Y022132D01*
X004006Y022290D02*
X009350Y022290D01*
X009355Y022290D02*
X004066Y022290D01*
X003794Y021815D02*
X005800Y021815D01*
X005811Y021815D02*
X003259Y021815D01*
X003009Y021656D02*
X005511Y021656D01*
X005578Y021656D02*
X003703Y021656D01*
X003613Y021498D02*
X005357Y021498D01*
X005212Y021498D02*
X002760Y021498D01*
X002511Y021339D02*
X004913Y021339D01*
X004913Y021181D02*
X003432Y021181D01*
X003522Y021339D02*
X005135Y021339D01*
X004691Y021022D02*
X003341Y021022D01*
X003251Y020864D02*
X004469Y020864D01*
X004314Y021022D02*
X002013Y021022D01*
X001764Y020864D02*
X004014Y020864D01*
X004247Y020705D02*
X003160Y020705D01*
X003100Y020547D02*
X004100Y020547D01*
X004100Y020388D02*
X003100Y020388D01*
X003116Y020388D02*
X001350Y020388D01*
X001350Y020230D02*
X002817Y020230D01*
X002518Y020071D02*
X001350Y020071D01*
X001350Y019913D02*
X002218Y019913D01*
X001515Y020705D02*
X003715Y020705D01*
X003416Y020547D02*
X001350Y020547D01*
X002262Y021181D02*
X004613Y021181D01*
X004100Y020230D02*
X003100Y020230D01*
X003100Y020071D02*
X004100Y020071D01*
X004100Y019913D02*
X003100Y019913D01*
X003100Y019754D02*
X004100Y019754D01*
X003508Y021973D02*
X006110Y021973D01*
X008146Y020864D02*
X009474Y020864D01*
X009593Y019437D02*
X008574Y019437D01*
X008600Y009769D02*
X010850Y009769D01*
X010850Y009610D02*
X008600Y009610D01*
X008600Y009452D02*
X010850Y009452D01*
X010850Y009293D02*
X008600Y009293D01*
X008600Y009135D02*
X010850Y009135D01*
X010850Y008976D02*
X008600Y008976D01*
X008600Y008818D02*
X010850Y008818D01*
X010850Y008659D02*
X008600Y008659D01*
X008600Y008501D02*
X010850Y008501D01*
X010850Y008342D02*
X008600Y008342D01*
X008600Y008184D02*
X010850Y008184D01*
X010850Y008025D02*
X008600Y008025D01*
X008600Y007867D02*
X010850Y007867D01*
X010850Y007708D02*
X008600Y007708D01*
X008600Y007550D02*
X010850Y007550D01*
X010850Y007391D02*
X008600Y007391D01*
X008600Y007233D02*
X010850Y007233D01*
X010850Y007074D02*
X008600Y007074D01*
X008600Y006916D02*
X010850Y006916D01*
X010850Y006757D02*
X008600Y006757D01*
X008600Y006599D02*
X010850Y006599D01*
X010850Y006440D02*
X008600Y006440D01*
X008600Y006282D02*
X010850Y006282D01*
X010850Y006123D02*
X008600Y006123D01*
X008600Y005965D02*
X010850Y005965D01*
X010850Y005806D02*
X008600Y005806D01*
X008600Y005648D02*
X010850Y005648D01*
X010850Y005489D02*
X008600Y005489D01*
X008600Y005331D02*
X010850Y005331D01*
X010850Y005172D02*
X008600Y005172D01*
X008600Y005014D02*
X010850Y005014D01*
X010850Y004855D02*
X008600Y004855D01*
X008600Y004697D02*
X010850Y004697D01*
X010850Y004538D02*
X008600Y004538D01*
X008600Y004380D02*
X010850Y004380D01*
X010850Y004221D02*
X008600Y004221D01*
X008600Y004063D02*
X010850Y004063D01*
X010850Y003904D02*
X008600Y003904D01*
X008600Y003746D02*
X010850Y003746D01*
X010850Y003587D02*
X008600Y003587D01*
X008600Y003429D02*
X010850Y003429D01*
X010930Y003270D02*
X008307Y003270D01*
X007726Y003112D02*
X011088Y003112D01*
X011247Y002953D02*
X007144Y002953D01*
X006563Y002795D02*
X011405Y002795D01*
X011564Y002636D02*
X005982Y002636D01*
X005850Y002478D02*
X014600Y002478D01*
X014600Y002319D02*
X005850Y002319D01*
X005850Y002161D02*
X014600Y002161D01*
X014600Y002002D02*
X005850Y002002D01*
X005850Y001844D02*
X014600Y001844D01*
X014600Y001685D02*
X005850Y001685D01*
X005850Y001527D02*
X014600Y001527D01*
X014600Y001368D02*
X005850Y001368D01*
X006100Y001600D02*
X006100Y002100D01*
X006100Y001600D02*
X005350Y000850D01*
X001600Y000850D01*
D21*
X012600Y016850D02*
X013600Y016850D01*
X016100Y014350D01*
X014600Y018350D02*
X006850Y018350D01*
X005350Y019850D01*
X005600Y023350D02*
X010100Y023350D01*
D22*
X018100Y006100D02*
X017600Y005446D01*
X017179Y003875D02*
X017100Y001850D01*
X015570Y000960D01*
X016401Y004100D02*
X017179Y003875D01*
X017600Y003754D01*
X015299Y004100D02*
X013100Y002100D01*
D23*
X003850Y013350D02*
X003600Y013484D01*
X003850Y013350D02*
X001850Y013350D01*
X001850Y018350D02*
X003600Y018484D01*
D24*
X000350Y017350D02*
X011100Y017850D01*
X012600Y021100D02*
X012100Y021600D01*
X012100Y023600D01*
X011600Y024100D01*
X001350Y024100D01*
X000350Y017350D02*
X000350Y008100D01*
X003100Y005600D01*
X003850Y004600D02*
X007350Y004600D01*
X018100Y012600D02*
X018100Y017850D01*
M02*
