%
M48
M72
T01C0.0197
T02C0.0400
T03C0.0512
T04C0.0590
T05C0.1000
%
T01
X1600Y850
X3850Y4600
X3100Y5600
X7350Y4600
X8850Y11350
X8850Y11850
X8850Y12350
X9350Y12350
X9350Y11850
X9350Y11350
X9850Y11350
X9850Y11850
X9850Y12350
X10350Y12350
X10350Y11850
X10350Y11350
X11850Y16100
X12600Y16850
X11100Y17850
X12600Y21100
X14600Y18350
X16100Y14350
X18100Y12600
X18100Y17850
X10100Y23350
X5600Y23350
X5350Y19850
X1350Y24100
X16850Y5100
X18100Y6100
T02
X18130Y2740
X18130Y960
X15570Y960
X15570Y2740
X14100Y2100
X13100Y2100
X12100Y2100
X11100Y2100
X10100Y2100
X9100Y2100
X8100Y2100
X7100Y2100
X6100Y2100
X5100Y2100
X4100Y2100
X3100Y2100
X3100Y25100
X4100Y25100
X5100Y25100
X6100Y25100
X7100Y25100
X8100Y25100
X9100Y25100
X10100Y25100
X11100Y25100
X12100Y25100
X13100Y25100
X14100Y25100
T03
X1850Y20319
X1850Y18350
X1850Y15319
X1850Y13350
X1850Y10319
X1850Y8350
T04
X6650Y15000
X8850Y15000
X11050Y15000
X11050Y20500
X8850Y20500
X6650Y20500
T05
X16350Y19713
X16350Y17413
X16350Y22987
X16350Y25287
M30
